# AST/ASF file generated using VICON BodyLanguage
# -----------------------------------------------
:version 1.10
:name VICON
:units
  mass 1.0
  length 0.45
  angle deg
:documentation
   .ast/.asf automatically generated from VICON data using
   VICON BodyBuilder and BodyLanguage model FoxedUp or BRILLIANT.MOD
:root
   order TX TY TZ RX RY RZ
   axis XYZ
   position 0 0 0  
   orientation 0 0 0 
:bonedata
  begin
     id 1 
     name lhipjoint
     direction 0.610259 -0.730986 0.305356 
     length 2.50941 
     axis 0 0 0  XYZ
  end
  begin
     id 2 
     name lfemur
     direction 0.34202 -0.939693 0  
     length 7.48822  
     axis 0 0 20  XYZ
    dof rx ry rz
    limits (-160.0 20.0)
           (-70.0 70.0)
           (-60.0 70.0)
  end
  begin
     id 3 
     name ltibia
     direction 0.34202 -0.939693 0   
     length 7.60141   
     axis 0 0 20   XYZ
    dof rx
    limits (-10.0 170.0)
  end
  begin
     id 4 
     name lfoot
     direction 0.0673488 -0.185039 0.980421   
     length 2.04049   
     axis -90 7.62852e-016 20   XYZ
    dof rx rz
    limits (-45.0 90.0)
           (-70.0 20.0)
  end
  begin
     id 5 
     name ltoes
     direction 1.5356e-011 -4.21729e-011 1   
     length 1.02897   
     axis -90 7.62852e-016 20   XYZ
    dof rx
    limits (-90.0 20.0)
  end
  begin
     id 6 
     name rhipjoint
     direction -0.57612 -0.754205 0.315056   
     length 2.43216  
     axis 0 0 0  XYZ 
  end
  begin
     id 7 
     name rfemur
     direction -0.34202 -0.939693 0   
     length 7.42799   
     axis 0 0 -20   XYZ
    dof rx ry rz
    limits (-160.0 20.0)
           (-70.0 70.0)
           (-70.0 60.0)
  end
  begin
     id 8 
     name rtibia
     direction -0.34202 -0.939693 0   
     length 7.69484   
     axis 0 0 -20   XYZ
    dof rx
    limits (-10.0 170.0)
 end
 begin
     id 9 
     name rfoot
     direction -0.111837 -0.30727 0.945028   
     length 2.15769  
     axis -90 -7.62852e-016 -20   XYZ
    dof rx rz
    limits (-45.0 90.0)
           (-20.0 70.0)
  end
  begin
     id 10 
     name rtoes
     direction -1.53539e-011 -4.21878e-011 1   
     length 1.07391   
     axis -90 -7.62852e-016 -20   XYZ
    dof rx
    limits (-90.0 20.0)
  end
  begin
     id 11 
     name lowerback
     direction 0.00552624 0.990109 -0.140195   
     length 2.12403   
     axis 0 0 0   XYZ
    dof rx ry rz
    limits (-20.0 45.0)
           (-30.0 30.0)
           (-30.0 30.0)
  end
  begin
     id 12 
     name upperback
     direction 0.00361898 0.999976 -0.00584723   
     length 2.13232   
     axis 0 0 0   XYZ
    dof rx ry rz
    limits (-20.0 45.0)
           (-30.0 30.0)
           (-30.0 30.0)
  end
  begin
     id 13 
     name thorax
     direction -0.000331275 0.998253 0.0590847   
     length 2.17688   
     axis 0 0 0   XYZ
    dof rx ry rz
    limits (-20.0 45.0)
           (-30.0 30.0)
           (-30.0 30.0)
  end
  begin
     id 14 
     name lowerneck
     direction -0.0561561 0.979832 0.19177   
     length 1.64159   
     axis 0 0 0   XYZ
    dof rx ry rz
    limits (-20.0 45.0)
           (-30.0 30.0)
           (-30.0 30.0)
  end
  begin
     id 15 
     name upperneck
     direction 0.0827153 0.979385 -0.184293   
     length 1.68939   
     axis 0 0 0   XYZ
    dof rx ry rz
    limits (-20.0 45.0)
           (-30.0 30.0)
           (-30.0 30.0)
  end
  begin
     id 16
     name head
     direction 0.0278583 0.995936 -0.0856488  
     length 1.70207  
     axis 0 0 0   XYZ
    dof rx ry rz
    limits (-20.0 45.0)
           (-30.0 30.0)
           (-30.0 30.0)
  end
  begin
     id 17 
     name lclavicle
     direction 0.950993 0.301131 -0.0702275  
     length 3.41652  
     axis 0 0 0   XYZ
    dof ry rz
    limits (-20.0 10.0)
           (0.0 20.0)
  end
  begin
     id 18 
     name lhumerus
     direction 1 -4.48981e-011 -3.9662e-029   
     length 5.32955   
     axis 180 -30 -90   XYZ
    dof rx ry rz
    limits (-60.0 90.0)
           (-90.0 90.0)
           (-90.0 90.0)
  end
  begin
     id 19
     name lradius
     direction 1 -4.48925e-011 -9.0549e-027   
     length 3.69232   
     axis 180 -30 -90   XYZ
    dof rx
    limits (-10.0 170.0)
  end
  begin
     id 20
     name lwrist
     direction 1 -4.49007e-011 -1.49005e-026   
     length 1.84616   
     axis 9.0955e-015 90 90   XYZ
    dof ry
    limits (-180.0 0.0)
 end
  begin
     id 21 
     name lhand
     direction 1 -4.49016e-011 -2.98023e-026   
     length 0.536598   
     axis 1.90115e-014 90 90   XYZ
    dof rx rz
    limits (-90.0 90.0)
           (-45.0 45.0)
  end
  begin
     id 22 
     name lfingers
     direction 1 -4.48924e-011 -5.9578e-026   
     length 0.432619   
     axis 3.80223e-014 90 90   XYZ
    dof rx
    limits (0.0 90.0)
  end
  begin
     id 23
     name lthumb
     direction 0.707107 -6.34947e-011 0.707107   
     length 0.621157   
     axis -90 45 -3.84942e-014   XYZ
    dof rx rz
    limits (-45.0 45.0)
           (-45.0 45.0)
  end
  begin
     id 24 
     name rclavicle
     direction -0.955495 0.276497 -0.102848   
     length 3.36357  
     axis 0 0 0   XYZ 
    dof ry rz
    limits (-10.0 20.0)
           (-20.0 0.0)
  end
  begin
     id 25 
     name rhumerus
     direction -1 -4.48961e-011 3.30983e-027  
     length 5.23431   
     axis 180 30 90   XYZ
    dof rx ry rz
    limits (-90.0 60.0)
           (-90.0 90.0)
           (-90.0 90.0)
  end
  begin
     id 26 
     name rradius
     direction -1 -4.48965e-011 -6.63263e-027   
     length 3.55301   
     axis 180 30 90   XYZ
    dof rx
    limits (-10.0 170.0)
  end
  begin
     id 27 
     name rwrist
     direction -1 -4.48942e-011 -1.48958e-026   
     length 1.77651   
     axis 9.0955e-015 -90 -90   XYZ
    dof ry
    limits (-180.0 0.0)
  end
  begin
     id 28
     name rhand
     direction -1 -4.48977e-011 -2.97966e-026   
     length 0.772522   
     axis 1.90115e-014 -90 -90   XYZ
    dof rx rz
    limits (-90.0 90.0)
           (-45.0 45.0)
  end
  begin
     id 29
     name rfingers
     direction -1 -4.49135e-011 -5.96389e-026   
     length 0.622827   
     axis 3.80223e-014 -90 -90   XYZ
    dof rx
    limits (0.0 90.0)
  end
  begin
     id 30
     name rthumb
     direction -0.707107 -6.34969e-011 0.707107   
     length 0.894259   
     axis -90 -45 3.84942e-014   XYZ
    dof rx rz
    limits (-45.0 45.0)
           (-45.0 45.0)
  end
:hierarchy
  begin
    root lhipjoint rhipjoint lowerback
    lhipjoint lfemur
    lfemur ltibia
    ltibia lfoot
    lfoot ltoes
    rhipjoint rfemur
    rfemur rtibia
    rtibia rfoot
    rfoot rtoes
    lowerback upperback
    upperback thorax
    thorax lowerneck lclavicle rclavicle
    lowerneck upperneck
    upperneck head
    lclavicle lhumerus
    lhumerus lradius
    lradius lwrist
    lwrist lhand lthumb
    lhand lfingers
    rclavicle rhumerus
    rhumerus rradius
    rradius rwrist
    rwrist rhand rthumb
    rhand rfingers
  end

#!OML:ASF F:\VICON\USERDATA\INSTALL\rory3\rory3.ASF
:FULLY-SPECIFIED
:DEGREES
160
root 10.2519 17.8332 0.20351 -4.92345 -41.3449 7.81069
lowerback 11.0352 -0.777358 -6.60481
upperback 0.830728 -1.85542 0.188576
thorax -5.10818 -0.773829 4.20432
lowerneck -17.6976 -4.61125 -10.7559
upperneck 29.3694 -5.73364 6.84956
head 13.3696 -2.91718 3.55276
rclavicle 3.56322e-014 1.39149e-014
rhumerus -34.9485 -7.08539 -82.0524
rradius 32.6018
rwrist 3.48339
rhand -15.8485 8.69089
rfingers 7.12502
rthumb 10.3463 -21.0346
lclavicle 3.56322e-014 1.39149e-014
lhumerus -24.2043 -4.93117 86.5129
lradius 34.8075
lwrist -6.23988
lhand -16.1831 24.7748
lfingers 7.12502
lthumb 10.0235 54.5161
rfemur -28.4363 -2.00869 14.5339
rtibia 23.159
rfoot -6.17172 -1.90167
rtoes -0.527991
lfemur 13.0398 -3.49672 -30.2403
ltibia 1.60589
lfoot -6.846 -3.79767
ltoes -9.29588
161
root 10.1602 17.8257 0.277411 -4.89012 -41.2413 7.76362
lowerback 10.8911 -0.792639 -6.44387
upperback 0.956733 -1.8475 0.078336
thorax -4.904 -0.785569 3.98907
lowerneck -17.8419 -4.65582 -10.6117
upperneck 29.356 -5.87508 6.99486
head 13.4096 -2.93987 3.56022
rclavicle 2.75317e-014 3.97569e-016
rhumerus -34.8834 -7.28346 -82.2761
rradius 32.4678
rwrist 3.26659
rhand -15.9812 8.48359
rfingers 7.12502
rthumb 10.2183 -21.2482
lclavicle 2.75317e-014 3.97569e-016
lhumerus -23.8412 -5.26744 86.4205
lradius 34.7794
lwrist -6.29178
lhand -15.7843 24.4517
lfingers 7.12502
lthumb 10.4082 54.1741
rfemur -28.3228 -1.7723 14.5537
rtibia 22.7781
rfoot -6.65144 -2.13262
rtoes -1.27771
lfemur 14.2678 -3.72854 -30.2289
ltibia -2.70347e-014
lfoot -6.01686 -3.90044
ltoes -9.57448
162
root 10.0698 17.8227 0.354586 -4.87558 -41.154 7.67746
lowerback 10.8966 -0.802414 -6.37975
upperback 1.00468 -1.84983 0.11106
thorax -4.85702 -0.790688 3.98702
lowerneck -17.9023 -4.70809 -10.5667
upperneck 29.3609 -5.97393 7.0367
head 13.4355 -2.97098 3.55152
rclavicle -4.58199e-014 3.18055e-015
rhumerus -34.8648 -7.8603 -81.9622
rradius 31.9874
rwrist 4.40994
rhand -15.3338 9.22411
rfingers 7.12502
rthumb 10.8428 -20.476
lclavicle -4.58199e-014 3.18055e-015
lhumerus -23.6646 -5.42336 86.5277
lradius 34.7677
lwrist -6.37651
lhand -15.5404 24.4737
lfingers 7.12502
lthumb 10.6435 54.1841
rfemur -28.15 -1.48535 14.5757
rtibia 22.6205
rfoot -6.94012 -2.47145
rtoes -0.106164
lfemur 14.7139 -3.94383 -30.1616
ltibia -1.59028e-015
lfoot -5.97069 -3.78229
ltoes -10.0939
163
root 9.9771 17.8221 0.434013 -4.92907 -41.1694 7.77381
lowerback 10.8852 -0.787958 -6.49475
upperback 0.975371 -1.8426 0.146869
thorax -4.87768 -0.782867 4.08883
lowerneck -17.85 -4.73516 -10.6553
upperneck 29.3756 -6.03942 7.17414
head 13.4465 -2.99351 3.61151
rclavicle 3.77691e-014 -7.55382e-015
rhumerus -34.9159 -7.66998 -82.0574
rradius 31.8048
rwrist 3.70749
rhand -15.7377 8.7658
rfingers 7.12502
rthumb 10.4532 -20.9543
lclavicle 3.77691e-014 -7.55382e-015
lhumerus -23.6503 -5.53347 86.6996
lradius 34.7785
lwrist -6.40267
lhand -15.7526 24.7203
lfingers 7.12502
lthumb 10.4388 54.4412
rfemur -28.0913 -1.53409 14.6243
rtibia 22.6751
rfoot -6.86741 -2.44283
rtoes 0.999294
lfemur 15.1268 -4.05654 -30.2166
ltibia 1.27222e-014
lfoot -5.95348 -3.64904
ltoes -10.7164
164
root 9.88241 17.8187 0.516701 -5.03858 -41.273 7.89007
lowerback 10.8477 -0.759215 -6.60353
upperback 0.969804 -1.81249 0.191883
thorax -4.86139 -0.765813 4.19241
lowerneck -17.7927 -4.7428 -10.7257
upperneck 29.3466 -6.03203 7.17212
head 13.4241 -2.99936 3.62382
rclavicle 5.49143e-014 -1.11319e-014
rhumerus -34.962 -7.87417 -81.8105
rradius 31.3989
rwrist 4.22433
rhand -15.6 8.91846
rfingers 7.12502
rthumb 10.586 -20.7949
lclavicle 5.49143e-014 -1.11319e-014
lhumerus -23.6364 -5.20003 86.8265
lradius 34.7896
lwrist -6.6709
lhand -15.9086 24.617
lfingers 7.12502
lthumb 10.2883 54.3453
rfemur -27.9826 -1.58839 14.732
rtibia 22.8832
rfoot -6.35819 -2.33104
rtoes 0.196863
lfemur 15.6091 -4.07323 -30.2845
ltibia 1.27222e-014
lfoot -5.88814 -3.57858
ltoes -11.5817
165
root 9.78849 17.8138 0.600498 -5.15711 -41.3129 7.86013
lowerback 10.9071 -0.747243 -6.52023
upperback 1.01519 -1.7888 0.209657
thorax -4.85132 -0.757343 4.16182
lowerneck -17.8656 -4.7537 -10.5266
upperneck 29.382 -6.00968 6.87905
head 13.4337 -3.00395 3.47548
rclavicle -5.66536e-015 1.31198e-014
rhumerus -35.0266 -8.20951 -81.6081
rradius 31.0132
rwrist 4.91191
rhand -15.4218 8.95415
rfingers 7.12502
rthumb 10.7579 -20.7504
lclavicle -5.66536e-015 1.31198e-014
lhumerus -23.671 -4.92924 86.9023
lradius 34.8418
lwrist -6.83306
lhand -16.0025 24.2491
lfingers 7.12502
lthumb 10.1977 53.9819
rfemur -27.731 -1.7341 14.973
rtibia 23.2135
rfoot -5.74277 -2.15726
rtoes -1.5641
lfemur 16.2325 -4.14059 -30.2715
ltibia 1.59028e-014
lfoot -5.79905 -3.48216
ltoes -12.9447
166
root 9.69355 17.8134 0.681328 -5.23474 -41.3289 7.83704
lowerback 11.0233 -0.732403 -6.45559
upperback 0.986386 -1.77081 0.209717
thorax -4.95068 -0.745378 4.12696
lowerneck -17.928 -4.76702 -10.2984
upperneck 29.4876 -6.01645 6.60932
head 13.4737 -3.017 3.32824
rclavicle 1.40143e-014 -2.3059e-014
rhumerus -35.2102 -8.42434 -81.52
rradius 30.7393
rwrist 5.18788
rhand -15.48 8.90114
rfingers 7.12502
rthumb 10.7018 -20.8063
lclavicle 1.40143e-014 -2.3059e-014
lhumerus -23.8101 -4.94428 86.9885
lradius 34.8573
lwrist -6.7952
lhand -15.9003 24.2063
lfingers 7.12502
lthumb 10.2963 53.9343
rfemur -27.5045 -1.93168 15.1993
rtibia 23.6416
rfoot -5.29321 -1.8842
rtoes -3.04772
lfemur 16.7692 -4.24114 -30.252
ltibia -3.49861e-014
lfoot -5.547 -3.44908
ltoes -13.6559
167
root 9.5934 17.8154 0.762342 -5.29508 -41.3547 7.89995
lowerback 10.994 -0.710656 -6.48705
upperback 0.977965 -1.74392 0.208853
thorax -4.94552 -0.73143 4.13921
lowerneck -17.8791 -4.80848 -10.468
upperneck 29.4467 -6.09245 6.81338
head 13.4687 -3.04308 3.42564
rclavicle 1.23346e-013 7.55382e-015
rhumerus -35.2551 -8.84366 -81.3316
rradius 30.3067
rwrist 5.67293
rhand -15.5982 8.83604
rfingers 7.12502
rthumb 10.5877 -20.8773
lclavicle 1.23346e-013 7.55382e-015
lhumerus -23.938 -4.90106 87.0798
lradius 34.9636
lwrist -6.71401
lhand -16.074 24.4779
lfingers 7.12502
lthumb 10.1288 54.2141
rfemur -27.2892 -2.1326 15.3533
rtibia 24.0796
rfoot -4.86858 -1.53012
rtoes -3.54813
lfemur 17.1974 -4.34326 -30.2719
ltibia 4.13472e-014
lfoot -5.1924 -3.50707
ltoes -14.174
168
root 9.49129 17.8116 0.849461 -5.34552 -41.3762 8.04561
lowerback 10.8282 -0.689193 -6.48722
upperback 0.989493 -1.70584 0.150641
thorax -4.84701 -0.71712 4.06728
lowerneck -17.901 -4.82345 -10.523
upperneck 29.3989 -6.14232 6.97208
head 13.4667 -3.04878 3.48894
rclavicle -6.30644e-014 3.18055e-015
rhumerus -35.2388 -9.44057 -81.1204
rradius 29.8083
rwrist 6.15793
rhand -15.5844 8.90524
rfingers 7.12502
rthumb 10.601 -20.8074
lclavicle -6.30644e-014 3.18055e-015
lhumerus -24.1171 -4.64333 87.0993
lradius 35.1907
lwrist -6.86961
lhand -16.4426 24.6736
lfingers 7.12502
lthumb 9.77311 54.4268
rfemur -27.0806 -2.22321 15.4092
rtibia 24.4934
rfoot -4.37415 -1.34867
rtoes -3.52379
lfemur 17.577 -4.45097 -30.3733
ltibia 4.13472e-014
lfoot -4.8557 -3.54604
ltoes -14.8244
